<?xml version="1.0" standalone="no"?>
<!DOCTYPE svg PUBLIC "-//W3C//DTD SVG 20010904//EN"
 "http://www.w3.org/TR/2001/REC-SVG-20010904/DTD/svg10.dtd">
<svg version="1.0" xmlns="http://www.w3.org/2000/svg"
 width="722.000000pt" height="722.000000pt" viewBox="0 0 722.000000 722.000000"
 preserveAspectRatio="xMidYMid meet">
<metadata>
Created by potrace 1.11, written by Peter Selinger 2001-2013
</metadata>
<g transform="translate(0.000000,722.000000) scale(0.100000,-0.100000)"
fill="#000000" stroke="none">
<path d="M3375 7054 c-22 -2 -89 -9 -150 -14 -240 -24 -520 -85 -753 -165
-1185 -406 -2051 -1413 -2276 -2645 -42 -233 -51 -340 -50 -620 1 -339 23
-524 99 -831 326 -1308 1412 -2318 2740 -2548 219 -38 317 -46 595 -46 288 0
395 9 625 51 1435 261 2550 1406 2779 2854 30 192 39 346 33 612 -5 279 -22
426 -73 656 -205 920 -766 1705 -1569 2198 -406 248 -867 410 -1355 475 -138
18 -546 33 -645 23z m616 -335 c50 -13 99 -48 123 -89 16 -27 21 -52 21 -112
0 -42 -4 -80 -7 -84 -4 -3 -51 -3 -104 1 l-96 7 7 55 c10 82 -28 130 -68 85
-19 -20 -33 -107 -46 -279 -11 -150 -5 -187 30 -191 36 -4 49 16 61 98 l11 72
96 -7 c53 -4 98 -9 100 -11 9 -9 -20 -146 -38 -182 -52 -102 -164 -136 -315
-97 -74 19 -111 46 -138 98 -19 36 -22 57 -22 152 2 200 32 374 75 429 53 67
175 89 310 55z m-601 -27 c43 -21 79 -83 87 -150 9 -76 -3 -117 -44 -157 -33
-32 -34 -35 -14 -35 13 0 38 -15 56 -33 26 -26 34 -45 44 -102 23 -138 33
-176 47 -182 31 -12 10 -21 -78 -32 -51 -7 -100 -14 -109 -17 -22 -6 -35 28
-54 143 -9 51 -18 100 -21 108 -8 19 -39 28 -70 21 -19 -5 -23 -11 -19 -29 13
-59 36 -248 31 -256 -3 -5 -52 -14 -108 -21 -69 -8 -133 -23 -192 -46 -69 -26
-92 -31 -98 -22 -5 7 -18 28 -30 46 -23 37 -37 38 -112 7 l-38 -16 7 -47 c4
-26 8 -51 8 -55 1 -5 -34 -23 -78 -40 -50 -20 -153 -80 -275 -159 -152 -100
-197 -125 -206 -115 -33 34 -394 601 -387 607 20 17 353 230 360 230 9 0 97
-130 91 -134 -2 -2 -45 -31 -95 -65 -51 -34 -93 -65 -93 -69 0 -10 49 -82 57
-82 3 0 45 25 94 56 49 31 91 55 93 53 13 -15 76 -120 76 -127 0 -5 -36 -33
-80 -62 -44 -29 -83 -57 -86 -62 -3 -5 9 -31 26 -58 l31 -49 99 65 c55 35 103
64 108 64 5 0 19 -18 31 -41 13 -22 25 -39 26 -37 2 2 -16 156 -41 342 -24
186 -42 342 -39 346 9 14 237 93 244 83 179 -268 395 -582 398 -580 2 2 -17
145 -42 318 -25 173 -47 325 -48 339 -2 25 0 25 138 46 179 28 259 29 305 6z
m1058 -67 c45 -15 82 -31 82 -36 0 -5 -16 -58 -35 -118 -19 -59 -35 -113 -35
-118 0 -11 51 -33 76 -33 9 0 28 45 51 120 26 82 42 120 52 120 29 0 181 -54
181 -65 0 -5 -13 -50 -29 -100 -17 -49 -66 -203 -111 -342 l-80 -251 -95 31
c-57 19 -95 37 -95 45 0 7 18 68 40 136 22 67 40 125 40 128 0 4 -20 13 -45
21 l-45 16 -41 -132 c-23 -73 -45 -136 -49 -140 -9 -10 -196 48 -194 60 3 14
216 678 220 685 3 4 10 5 17 3 7 -2 49 -15 95 -30z m1021 -515 c72 -36 112
-112 91 -175 -22 -68 -94 -105 -202 -105 l-58 0 1 -67 c1 -38 4 -99 8 -138 l6
-70 46 43 c40 36 48 40 59 27 16 -19 6 -31 -63 -82 l-50 -37 7 -88 c4 -48 4
-88 0 -88 -4 0 -16 7 -26 17 -14 12 -18 31 -18 78 l0 62 -70 -5 c-87 -6 -142
13 -200 69 -77 75 -92 161 -41 241 42 67 93 88 209 88 l92 0 0 68 c0 79 29
149 70 169 37 19 96 16 139 -7z m-3860 -200 c41 -12 111 -58 111 -74 0 -6 -29
-40 -64 -75 l-64 -64 -28 22 c-44 34 -84 22 -84 -25 0 -27 44 -64 75 -64 13 0
64 16 114 35 142 55 214 44 294 -44 102 -113 95 -205 -23 -334 -56 -61 -136
-107 -187 -107 -43 0 -89 20 -133 58 l-35 31 72 72 71 72 32 -26 c37 -31 47
-33 72 -10 25 22 23 49 -7 78 -31 32 -53 31 -161 -6 -152 -53 -221 -40 -298
54 -48 60 -58 84 -58 136 0 61 21 110 73 166 52 56 90 84 138 101 44 16 48 16
90 4z m2236 -131 c481 -58 928 -276 1272 -618 176 -174 303 -351 418 -582 411
-830 249 -1829 -405 -2490 -518 -523 -1256 -748 -1980 -603 -813 163 -1469
785 -1675 1589 -48 188 -65 326 -65 538 0 273 26 446 106 687 106 324 282 609
528 856 184 183 356 306 588 419 374 183 799 254 1213 204z m2343 -376 c50
-76 98 -155 107 -175 30 -75 15 -141 -46 -192 -74 -63 -150 -81 -208 -52 l-28
15 1 -42 c1 -60 -19 -86 -124 -157 -59 -41 -92 -71 -96 -86 -3 -13 -9 -24 -13
-24 -3 0 -33 41 -66 92 l-60 91 40 34 c22 18 69 55 105 81 70 51 81 73 52 111
l-19 23 -107 -71 c-59 -40 -113 -74 -120 -77 -10 -4 -32 21 -65 69 -28 42 -52
80 -53 86 -3 9 587 411 603 411 3 0 47 -62 97 -137z m-5090 -269 c72 -36 112
-84 112 -135 l0 -40 31 23 c46 34 90 29 207 -26 74 -35 110 -46 128 -42 24 6
23 3 -26 -94 -31 -61 -56 -100 -65 -100 -9 0 -60 20 -114 45 -54 25 -108 45
-119 45 -20 0 -52 -34 -52 -55 0 -6 54 -38 121 -70 66 -33 123 -63 125 -67 8
-12 -80 -178 -93 -178 -7 0 -157 72 -333 160 l-320 160 76 153 c42 83 86 165
97 180 49 71 135 86 225 41z m5442 -386 c39 -101 72 -193 73 -206 2 -20 -8
-27 -70 -51 l-73 -29 -42 109 c-23 60 -45 109 -49 109 -4 0 -28 -9 -53 -20
l-46 -19 20 -51 c11 -27 29 -73 40 -101 12 -29 19 -53 18 -54 -17 -12 -144
-53 -149 -47 -4 4 -23 48 -42 97 -39 100 -42 102 -117 67 l-38 -17 43 -110
c24 -60 40 -113 37 -117 -9 -8 -144 -59 -148 -55 -6 5 -153 385 -156 402 -2
14 59 41 327 146 182 71 335 129 342 129 6 0 44 -82 83 -182z m-5743 -212 c1
-1 -11 -52 -27 -114 -20 -80 -25 -114 -17 -117 53 -17 92 -23 97 -15 3 5 16
53 29 105 16 68 27 95 38 95 16 0 136 -30 141 -35 2 -1 -9 -49 -23 -105 -14
-56 -24 -104 -22 -107 8 -7 111 -33 115 -28 2 2 16 54 32 115 16 61 30 113 32
115 4 5 147 -31 154 -38 5 -5 -96 -419 -105 -429 -6 -7 -690 160 -704 172 -7
6 85 400 99 421 3 5 153 -27 161 -35z m5811 -230 c67 -35 107 -102 123 -206
19 -123 -9 -192 -94 -235 -84 -42 -92 -38 -105 53 -17 107 -16 109 18 117 41
9 56 39 35 71 -21 33 -59 31 -94 -4 -21 -20 -33 -48 -46 -107 -28 -127 -61
-178 -137 -210 -49 -20 -179 -20 -217 0 -77 40 -116 133 -116 280 0 88 3 104
23 132 24 34 89 70 137 75 l30 3 17 -95 c9 -52 15 -95 15 -96 -1 0 -20 -7 -42
-15 -31 -11 -41 -21 -43 -41 -5 -40 35 -64 81 -49 39 13 43 21 82 149 32 106
69 156 130 177 53 19 168 19 203 1z m-5936 -378 l-4 -67 44 -5 c43 -5 436 -26
492 -26 l29 0 -6 -101 c-3 -55 -7 -102 -9 -105 -3 -2 -123 3 -269 11 -145 8
-270 15 -276 15 -8 0 -13 -14 -13 -39 0 -21 -3 -53 -6 -71 l-7 -32 -81 7 c-45
4 -82 8 -84 10 -4 3 18 455 22 470 2 6 36 8 87 5 l84 -5 -3 -67z m5758 -218
c172 -11 234 -27 277 -72 45 -48 54 -71 60 -151 6 -78 -13 -177 -43 -223 -28
-43 -90 -67 -171 -68 -39 0 -75 3 -79 6 -3 4 -3 51 1 104 l7 96 46 -5 c61 -7
102 8 102 38 0 12 -6 28 -14 34 -20 17 -162 31 -316 31 -140 0 -160 -5 -160
-42 0 -27 38 -45 113 -53 l69 -7 -7 -96 c-4 -54 -9 -99 -11 -101 -9 -10 -157
20 -192 38 -89 45 -124 140 -102 277 19 120 68 177 168 194 66 11 88 11 252 0z
m-5214 -230 c8 -51 13 -98 11 -103 -1 -5 -23 -18 -47 -27 l-45 -18 2 -58 c3
-82 4 -84 66 -84 l54 0 16 -102 c9 -56 15 -103 13 -105 -1 -2 -171 12 -377 30
l-374 32 -18 124 c-10 68 -15 127 -10 132 9 9 687 278 691 274 1 -1 9 -44 18
-95z m5237 -399 c137 -38 251 -72 254 -74 4 -5 -41 -185 -49 -193 -2 -2 -127
30 -276 71 -150 41 -281 75 -292 75 -24 0 -43 -34 -35 -60 7 -22 23 -27 353
-119 118 -33 216 -62 219 -64 4 -5 -42 -186 -50 -193 -7 -8 -514 137 -556 159
-24 12 -58 39 -75 61 -30 36 -31 42 -31 129 0 80 4 100 29 154 31 68 69 109
112 123 53 17 147 1 397 -69z m-5116 -231 c28 -70 37 -102 29 -108 -6 -5 -98
-57 -204 -117 -106 -59 -192 -109 -190 -110 2 -2 100 23 218 56 118 32 220 59
226 59 9 0 98 -200 92 -205 -2 -2 -144 -89 -317 -194 -236 -145 -316 -189
-322 -179 -14 22 -72 169 -68 172 2 2 102 54 222 116 120 62 216 114 215 116
-2 1 -109 -27 -238 -62 -129 -35 -238 -64 -241 -64 -4 0 -22 37 -40 81 -32 80
-32 82 -13 96 10 8 106 64 211 125 106 62 191 113 189 115 -2 2 -106 -28 -231
-67 -125 -40 -231 -68 -235 -63 -11 10 -72 164 -68 169 5 4 689 162 708 163
11 1 29 -31 57 -99z m4839 -336 c176 -91 321 -168 323 -170 4 -4 -32 -76 -146
-291 l-54 -103 -72 36 c-40 20 -73 37 -74 38 -2 2 21 50 51 107 l55 104 -49
27 -49 28 -52 -100 -51 -100 -69 37 c-38 21 -69 42 -69 46 0 5 20 46 45 91 25
46 45 87 45 92 0 8 -90 64 -102 64 -2 0 -29 -47 -58 -105 -30 -58 -58 -105
-63 -105 -4 0 -39 16 -77 35 l-70 35 48 93 c27 50 75 140 106 200 32 59 59
107 60 107 2 0 147 -75 322 -166z m-2107 -1387 c50 -17 73 -54 75 -118 l1 -54
-62 -3 -63 -3 0 34 c0 40 -21 73 -42 64 -38 -14 -38 -300 0 -315 22 -8 42 26
42 75 l0 43 65 0 65 0 0 -42 c0 -24 -9 -62 -20 -86 -26 -57 -88 -87 -166 -79
-124 13 -147 51 -147 247 0 166 11 201 75 230 49 22 125 25 177 7z m-811 -184
l2 -183 70 0 70 0 0 -55 0 -55 -140 0 -140 0 0 240 0 241 68 -3 67 -3 3 -182z
m348 70 c14 -65 30 -125 35 -133 5 -9 9 40 9 118 l0 132 60 0 60 0 0 -240 0
-240 -70 0 -69 0 -10 38 c-6 20 -20 78 -32 127 -12 50 -26 94 -30 100 -5 5 -9
-51 -9 -128 l0 -137 -60 0 -60 0 0 240 0 240 74 0 74 0 28 -117z"/>
<path d="M3174 6503 c15 -105 18 -113 38 -113 25 0 68 44 68 69 0 27 -19 74
-33 83 -7 4 -27 8 -46 8 l-33 0 6 -47z"/>
<path d="M2575 6338 c3 -13 16 -74 29 -136 13 -62 26 -115 28 -118 6 -5 78 24
78 32 0 8 -132 244 -136 244 -3 0 -2 -10 1 -22z"/>
<path d="M5338 6073 c-30 -35 -38 -63 -38 -132 l0 -71 60 0 c102 0 162 39 162
103 0 42 -25 83 -63 103 -39 20 -102 18 -121 -3z"/>
<path d="M5115 5846 c-5 -3 -22 -7 -37 -10 -67 -15 -118 -96 -104 -168 7 -41
65 -112 110 -135 36 -19 131 -22 163 -5 21 12 22 15 16 160 -3 81 -6 148 -7
149 -3 4 -132 12 -141 9z"/>
<path d="M3290 4620 c0 -187 -2 -340 -5 -340 -3 0 -133 72 -289 160 -156 88
-288 160 -293 160 -4 0 -89 -131 -187 -291 -151 -245 -177 -292 -165 -303 8
-7 139 -89 292 -181 153 -92 275 -171 270 -175 -4 -4 -132 -78 -283 -165 -151
-86 -279 -160 -284 -165 -5 -5 61 -137 154 -307 89 -164 163 -299 165 -301 1
-1 136 70 301 158 164 88 299 160 301 160 2 0 3 -160 3 -355 l0 -355 380 0
380 0 0 355 c0 195 2 355 4 355 2 0 134 -69 292 -154 159 -85 295 -156 301
-158 14 -3 336 580 329 598 -2 6 -133 84 -290 173 -157 90 -286 164 -286 166
0 1 132 82 294 180 162 99 293 181 291 184 -2 3 -83 134 -179 291 -97 157
-181 286 -185 288 -5 2 -136 -69 -292 -157 l-284 -160 -3 340 -2 339 -365 0
-365 0 0 -340z m450 50 c18 -18 20 -33 20 -130 0 -60 -3 -110 -6 -110 -4 0
-22 14 -41 30 -21 19 -45 30 -63 30 l-30 0 0 80 c0 91 17 120 70 120 17 0 39
-9 50 -20z m-28 -226 c46 -39 57 -54 38 -54 -10 0 -9 -4 0 -15 10 -12 12 -71
8 -265 -6 -274 -7 -277 -76 -343 l-30 -29 -6 79 c-3 43 -8 141 -11 218 -3 77
-8 181 -11 231 l-6 90 60 -4 c33 -2 62 0 65 4 3 5 -20 10 -51 11 -32 1 -66 4
-76 5 -33 5 -47 -37 -44 -127 2 -56 10 -93 25 -125 23 -49 40 -170 24 -170
-16 0 -80 80 -117 147 -68 120 -62 229 16 308 47 48 92 74 127 75 11 0 41 -16
65 -36z m102 -455 c57 -45 72 -119 36 -188 -11 -22 -56 -79 -101 -127 -105
-114 -112 -130 -103 -250 4 -53 3 -94 -2 -94 -17 0 -65 89 -76 142 -15 73 1
123 63 200 146 184 139 172 139 259 0 43 4 79 9 79 4 0 20 -9 35 -21z m-83
-671 c-9 -77 -36 -148 -59 -156 -9 -3 -12 44 -12 186 0 188 0 190 26 228 15
21 32 42 38 46 15 10 20 -200 7 -304z m63 -12 c33 -69 19 -110 -77 -225 -52
-62 -68 -112 -66 -206 1 -36 -1 -68 -4 -71 -8 -8 -37 130 -37 178 0 54 25 109
77 171 40 48 63 102 63 149 0 49 22 51 44 4z m-67 -421 c-5 -155 -17 -228 -34
-211 -12 11 -21 310 -11 331 12 23 39 55 46 55 3 0 2 -79 -1 -175z m33 -138
c0 -43 -47 -117 -73 -117 -6 0 -1 10 11 23 27 29 42 69 42 115 0 28 3 33 10
22 5 -8 10 -28 10 -43z m-49 -159 c-4 -41 -5 -42 -11 -13 -5 23 3 55 14 55 1
0 -1 -19 -3 -42z"/>
<path d="M3638 4443 c6 -2 18 -2 25 0 6 3 1 5 -13 5 -14 0 -19 -2 -12 -5z"/>
<path d="M1480 3439 c0 -49 36 -261 59 -349 142 -540 494 -1007 969 -1287 311
-184 633 -276 1002 -290 573 -20 1119 187 1529 582 251 241 423 509 540 839
l30 86 -22 0 c-12 0 -110 -20 -217 -45 -107 -24 -271 -61 -365 -83 l-170 -38
-75 -137 c-41 -75 -81 -137 -88 -137 -6 0 -87 41 -180 91 -93 51 -178 91 -192
91 -14 -1 -58 -4 -97 -7 l-73 -7 0 -269 0 -269 -477 2 -478 3 -3 296 -2 297
-23 6 c-43 11 -60 5 -283 -115 -124 -66 -230 -119 -237 -116 -7 3 -75 120
-151 261 l-140 256 -75 41 c-42 23 -146 84 -231 135 -207 124 -340 177 -487
191 l-63 6 0 -34z"/>
<path d="M6008 5239 c-51 -35 -56 -42 -46 -59 20 -32 54 -42 91 -27 41 17 60
40 60 72 0 27 -19 55 -37 54 -6 0 -37 -18 -68 -40z"/>
<path d="M956 4926 c-15 -14 -26 -30 -26 -35 0 -6 32 -27 70 -46 l70 -35 11
24 c22 48 -9 95 -74 112 -20 4 -32 0 -51 -20z"/>
<path d="M822 3241 c-67 -20 -120 -40 -116 -44 4 -4 68 -7 142 -7 l135 0 -7
31 c-3 17 -6 38 -6 45 0 19 -8 18 -148 -25z"/>
</g>
</svg>
